<?xml version="1.0" encoding="utf-8"?>
<!-- Generator: Adobe Illustrator 17.0.0, SVG Export Plug-In . SVG Version: 6.00 Build 0)  -->
<!DOCTYPE svg PUBLIC "-//W3C//DTD SVG 1.1//EN" "http://www.w3.org/Graphics/SVG/1.1/DTD/svg11.dtd">
<svg version="1.1" id="Layer_1" xmlns="http://www.w3.org/2000/svg" xmlns:xlink="http://www.w3.org/1999/xlink" x="0px" y="0px"
	 width="72.333px" height="67px" viewBox="259.807 385.445 72.333 67" enable-background="new 259.807 385.445 72.333 67"
     xml:space="preserve">
     <defs>
		<linearGradient id="lg1" x1="0.5" y1="1" x2="0.5" y2="0">
      	<stop offset="0" stop-color="#5e2d90">
            <animate id="op" dur="3s" attributeName="offset" begin="1s;op.end+2s" fill="freeze" from="0" to="1" />
          </stop>
          <stop offset="0" stop-color="transparent">
            <animate id="op" dur="3s" attributeName="offset" begin="1s;op.end+2s" fill="freeze" from="0" to="1" />
          </stop>
  </linearGradient>
        <linearGradient id="lg2" x1="0.5" y1="1" x2="0.5" y2="0">
      	<stop offset="0" stop-color="#b8d433">
            <animate id="op" dur="3s" attributeName="offset" begin="1s;op.end+2s" fill="freeze" from="0" to="1" />
          </stop>
          <stop offset="0" stop-color="transparent">
            <animate id="op" dur="3s" attributeName="offset" begin="1s;op.end+2s" fill="freeze" from="0" to="1" />
          </stop>
  </linearGradient>
      </defs>
<path fill="url(#lg1)" stroke-width="0" opacity="1" d="M293.382,393.007c0.459,0.293,0.625,0.702,0.59,1.248c-0.04,0.634-0.003,1.272-0.012,1.908
	c-0.008,0.588-0.36,0.966-0.885,0.969c-0.525,0.004-0.892-0.364-0.906-0.956c-0.017-0.731-0.001-1.463-0.006-2.194
	c-0.004-0.474,0.261-0.762,0.644-0.975L293.382,393.007L293.382,393.007z"/>
<path fill="#5e2d90" d="M303.537,430.219c-0.851-0.443-1.681-0.844-2.479-1.3c-5.556-3.174-11.578-4.969-17.85-5.998
	c-4.14-0.679-8.309-0.901-12.499-0.597c-0.286,0.022-0.571,0.07-0.858,0.088c-0.607,0.041-1.017-0.253-1.082-0.76
	c-0.065-0.525,0.276-0.952,0.902-1.014c1.062-0.107,2.131-0.163,3.196-0.239c0.109-0.009,0.219-0.014,0.36-0.023v-4.885
	c-0.326,0.435-0.587,0.786-0.85,1.135c-0.482,0.639-0.973,0.79-1.444,0.446c-0.473-0.346-0.477-0.877-0.008-1.505
	c0.573-0.767,1.1-1.576,1.738-2.285c0.583-0.649,0.69-1.353,0.551-2.252c-0.342,0.451-0.639,0.849-0.943,1.244
	c-0.396,0.515-0.93,0.627-1.362,0.29c-0.419-0.328-0.456-0.854-0.081-1.358c0.676-0.909,1.346-1.823,2.046-2.714
	c0.281-0.356,0.433-0.715,0.392-1.174c-0.032-0.372-0.006-0.75-0.104-1.158c-0.293,0.388-0.584,0.777-0.879,1.162
	c-0.406,0.529-0.916,0.646-1.36,0.318c-0.435-0.32-0.471-0.864-0.077-1.393c0.819-1.1,1.641-2.199,2.469-3.293
	c0.527-0.694,1.155-0.687,1.684,0.014c0.827,1.095,1.65,2.192,2.47,3.293c0.392,0.528,0.347,1.065-0.102,1.386
	c-0.431,0.306-0.945,0.19-1.328-0.306c-0.293-0.379-0.577-0.763-0.927-1.135c0.055,0.736-0.303,1.49,0.252,2.192
	c0.722,0.914,1.405,1.858,2.1,2.793c0.393,0.531,0.354,1.071-0.088,1.39c-0.434,0.314-0.964,0.186-1.362-0.332
	c-0.273-0.354-0.54-0.711-0.813-1.065c-0.015-0.019-0.051-0.02-0.116-0.042c-0.031,0.682-0.126,1.319,0.393,1.921
	c0.707,0.819,1.319,1.721,1.967,2.592c0.408,0.548,0.388,1.06-0.044,1.396c-0.445,0.346-0.978,0.223-1.396-0.324
	c-0.261-0.343-0.52-0.688-0.78-1.029c-0.019-0.025-0.048-0.041-0.12-0.098v4.761c0.828,0.041,1.668,0.067,2.506,0.128
	c1.034,0.074,2.066,0.241,3.099,0.249c1.113,0.007,2.228-0.106,3.34-0.198c4.23-0.349,8.456-0.773,12.712-0.526
	c2.99,0.174,5.912,0.748,8.807,1.476c0.11,0.027,0.239,0.154,0.276,0.263c0.185,0.558,0.343,1.125,0.533,1.763
	c-2.987-0.719-5.942-1.451-8.987-1.65c-3.037-0.198-6.069-0.179-9.141,0.135c2.068,0.64,4.077,1.254,6.081,1.883
	c3.139,0.985,5.969,2.637,8.871,4.133c0.765,0.394,1.521,0.808,2.296,1.181c0.173,0.083,0.435,0.094,0.616,0.029
	c1.123-0.407,2.23-0.861,3.356-1.26c0.199-0.071,0.49-0.023,0.689,0.072c0.568,0.274,1.112,0.6,1.701,0.925
	c-1.528,0.586-3.031,1.142-4.519,1.735c-3.419,1.363-6.802,2.821-10.251,4.099c-5.133,1.903-10.447,3.108-15.894,3.677
	c-3.529,0.369-7.068,0.487-10.608,0.116c-0.318-0.033-0.636-0.064-0.95-0.114c-0.569-0.091-0.927-0.525-0.856-1.019
	c0.074-0.515,0.506-0.842,1.082-0.767c2.846,0.364,5.699,0.353,8.556,0.182c5.214-0.313,10.3-1.313,15.297-2.82
	c3.304-0.996,6.446-2.405,9.632-3.703C303.404,430.327,303.449,430.281,303.537,430.219"/>
<path fill="url(#lg2)" stroke-width="0" opacity="1" d="M315.019,432.615c-0.001-1.436-0.008-2.873,0.005-4.309c0.003-0.295-0.082-0.403-0.386-0.46
	c-2.008-0.377-3.81-1.171-5.18-2.748c-1.459-1.677-2.044-3.679-2.082-5.868c-0.078-4.464,0.797-8.751,2.455-12.88
	c0.573-1.429,1.212-2.84,1.944-4.195c0.377-0.698,0.952-1.33,1.556-1.855c1.639-1.422,3.726-1.34,5.334,0.123
	c0.839,0.762,1.481,1.68,1.959,2.694c2.498,5.289,4.063,10.803,3.78,16.712c-0.161,3.385-1.983,6.87-6.829,7.942
	c-0.762,0.169-0.762,0.166-0.762,0.96c0,2.602,0,5.203-0.001,7.804c0,0.144,0.007,0.288-0.004,0.431
	c-0.039,0.551-0.407,0.933-0.896,0.935c-0.515,0.001-0.888-0.394-0.891-0.977C315.014,435.488,315.019,434.052,315.019,432.615
	 M316.81,426.034c2.273-0.107,4.599-1.918,5.409-4.148c0.377-1.039,0.407-2.111,0.416-3.203c0.038-5.184-1.403-10.006-3.576-14.641
	c-0.372-0.794-0.915-1.545-1.52-2.184c-1.014-1.072-2.267-1.067-3.269,0.019c-0.629,0.68-1.199,1.47-1.589,2.308
	c-2.281,4.9-3.692,10.009-3.5,15.474c0.04,1.152,0.321,2.241,0.904,3.236c1.095,1.868,2.815,2.779,4.933,3.189
	c0-0.405-0.031-0.757,0.008-1.101c0.053-0.459-0.124-0.772-0.451-1.078c-0.675-0.633-1.324-1.295-1.966-1.96
	c-0.378-0.39-0.366-0.932-0.009-1.284c0.352-0.346,0.851-0.352,1.25-0.002c0.191,0.168,0.361,0.36,0.546,0.537
	c0.183,0.176,0.37,0.347,0.622,0.581v-0.504c0.001-1.34-0.006-2.68,0.006-4.02c0.004-0.507,0.349-0.86,0.818-0.888
	c0.505-0.031,0.89,0.28,0.952,0.802c0.031,0.252,0.016,0.51,0.018,0.765c0.002,0.351,0.001,0.702,0.001,1.052
	c0.05,0.017,0.1,0.032,0.149,0.048c0.293-0.314,0.577-0.637,0.88-0.94c0.463-0.466,1.002-0.503,1.386-0.115
	c0.385,0.39,0.339,0.915-0.133,1.39c-0.651,0.657-1.298,1.32-1.968,1.959c-0.242,0.23-0.328,0.47-0.323,0.797
	c0.017,1.133,0.006,2.265,0.006,3.398L316.81,426.034L316.81,426.034z"/>
<path  fill="#b8d433" d="M313.211,430.978c0,0.662,0.01,1.247-0.01,1.831c-0.003,0.095-0.114,0.224-0.209,0.272
	c-5.363,2.709-10.32,6.096-15.459,9.183c-6.33,3.803-13.159,6.358-20.457,7.596c-2.378,0.404-4.774,0.653-7.192,0.597
	c-0.258-0.005-0.55-0.071-0.762-0.208c-0.336-0.218-0.442-0.582-0.306-0.972c0.15-0.429,0.474-0.607,0.921-0.623
	c1.259-0.049,2.522-0.065,3.776-0.178c4.326-0.394,8.515-1.413,12.605-2.857c4.697-1.66,9.131-3.852,13.281-6.609
	c4.255-2.828,8.651-5.414,13.202-7.734C312.78,431.185,312.962,431.099,313.211,430.978"/>
<path fill="url(#lg1)" stroke-width="0" opacity="1" d="M293.019,398.65c3.706,0.004,6.815,3.038,6.873,6.707c0.011,0.685-0.339,1.12-0.897,1.12
	c-0.536-0.001-0.883-0.413-0.907-1.074c-0.099-2.815-2.322-4.992-5.087-4.985c-2.769,0.006-5.001,2.204-5.078,5.003
	c-0.017,0.654-0.377,1.067-0.917,1.055c-0.554-0.013-0.904-0.463-0.883-1.139C286.239,401.625,289.311,398.645,293.019,398.65"/>
<path fill="#b8d433" d="M318.595,430.427c0-0.252-0.03-0.522,0.014-0.78c0.021-0.131,0.157-0.306,0.278-0.345
	c1.227-0.393,2.342-0.984,3.412-1.699c0.371-0.247,0.9-0.285,1.367-0.354c0.551-0.081,1.113-0.126,1.668-0.12
	c0.533,0.006,0.914,0.442,0.9,0.929c-0.015,0.461-0.373,0.85-0.865,0.856c-2.158,0.025-4.172,0.674-6.173,1.39
	c-0.15,0.054-0.3,0.105-0.452,0.152C318.718,430.464,318.685,430.446,318.595,430.427"/>
<path fill="url(#lg1)" stroke-width="0" opacity="1" d="M287.545,398.981c-0.184,0.229-0.329,0.572-0.572,0.669c-0.265,0.105-0.717,0.101-0.918-0.064
	c-0.677-0.553-1.294-1.184-1.903-1.816c-0.315-0.328-0.265-0.857,0.039-1.178c0.316-0.333,0.859-0.392,1.213-0.068
	c0.636,0.58,1.247,1.189,1.846,1.809C287.382,398.467,287.419,398.694,287.545,398.981"/>
<path fill="url(#lg1)" stroke-width="0" opacity="1" d="M299.502,399.845c-0.228-0.186-0.582-0.341-0.686-0.597c-0.104-0.258-0.077-0.718,0.094-0.916
	c0.571-0.658,1.219-1.254,1.866-1.841c0.334-0.302,0.863-0.231,1.171,0.087c0.313,0.321,0.368,0.839,0.053,1.17
	c-0.603,0.632-1.238,1.236-1.879,1.831C299.992,399.699,299.78,399.73,299.502,399.845"/>
<path fill="url(#lg1)" stroke-width="0" opacity="1" d="M284.402,402.847c-0.08-0.021-0.222-0.047-0.354-0.096c-0.684-0.254-1.369-0.508-2.048-0.775
	c-0.555-0.219-0.785-0.677-0.607-1.166c0.185-0.511,0.675-0.72,1.246-0.511c0.715,0.262,1.429,0.527,2.134,0.815
	c0.453,0.184,0.652,0.595,0.555,1.039C285.241,402.541,284.865,402.843,284.402,402.847"/>
<path fill="url(#lg1)" stroke-width="0" opacity="1" d="M304.669,400.995c-0.107,0.136-0.253,0.484-0.509,0.612c-0.738,0.369-1.513,0.669-2.288,0.957
	c-0.488,0.181-0.953-0.058-1.137-0.516c-0.18-0.454,0.005-0.932,0.493-1.145c0.728-0.318,1.464-0.622,2.21-0.899
	C304.043,399.78,304.648,400.196,304.669,400.995"/>
<path fill="url(#lg1)" stroke-width="0" opacity="1" d="M290.534,396.895c-0.124,0.48-0.344,0.779-0.756,0.887c-0.406,0.105-0.8,0.002-0.986-0.392
	c-0.374-0.79-0.725-1.594-1.029-2.413c-0.147-0.395,0.037-0.76,0.405-0.98c0.371-0.222,0.845-0.228,1.041,0.121
	C289.709,395.01,290.099,395.965,290.534,396.895"/>
<path fill="url(#lg1)" stroke-width="0" opacity="1" d="M298.448,394.842c-0.022,0.075-0.058,0.231-0.118,0.376c-0.278,0.658-0.556,1.316-0.846,1.97
	c-0.252,0.565-0.739,0.779-1.235,0.559c-0.471-0.208-0.643-0.7-0.415-1.251c0.291-0.705,0.587-1.407,0.903-2.1
	c0.19-0.418,0.612-0.609,1.023-0.509C298.15,393.983,298.447,394.359,298.448,394.842"/>
<path fill="#5e2d90" d="M283.131,425.312c0.009,0.496-0.413,0.923-0.905,0.917c-0.47-0.005-0.885-0.417-0.894-0.887
	c-0.01-0.49,0.419-0.92,0.911-0.915C282.723,424.433,283.123,424.832,283.131,425.312"/>
<path fill="#5e2d90"  d="M310.088,441.484c0.492,0.012,0.907,0.455,0.882,0.943c-0.026,0.479-0.44,0.867-0.916,0.857
	c-0.501-0.011-0.893-0.432-0.872-0.939C309.202,441.862,309.61,441.473,310.088,441.484"/>
<path fill="#5e2d90" d="M295.704,430.718c-0.499,0-0.901-0.418-0.891-0.925c0.012-0.487,0.404-0.87,0.89-0.871
	c0.5,0,0.915,0.422,0.9,0.917C296.59,430.313,296.176,430.718,295.704,430.718"/>
<path fill="#5e2d90" d="M319.945,435.204c-0.497-0.003-0.907-0.428-0.892-0.926c0.015-0.484,0.411-0.863,0.9-0.862
	c0.505,0.002,0.917,0.421,0.898,0.917C320.834,434.807,320.418,435.207,319.945,435.204"/>
<path fill="#5e2d90" d="M272.336,446.046c0.01,0.517-0.374,0.908-0.891,0.906c-0.498-0.002-0.873-0.371-0.881-0.867
	c-0.009-0.5,0.35-0.886,0.841-0.905C271.925,445.159,272.326,445.532,272.336,446.046"/>
<path fill="#5e2d90"  d="M324.429,445.058c0.011,0.511-0.382,0.915-0.89,0.914c-0.488-0.002-0.878-0.384-0.888-0.871
	c-0.012-0.503,0.396-0.923,0.893-0.922C324.027,444.181,324.419,444.57,324.429,445.058"/>
<path fill="#5e2d90" d="M275.928,432.514c0.49-0.012,0.884,0.357,0.905,0.849c0.023,0.516-0.353,0.922-0.864,0.932
	c-0.495,0.01-0.886-0.354-0.905-0.844C275.042,432.934,275.418,432.527,275.928,432.514"/>
<path fill="#5e2d90" d="M296.613,447.747c0.013-0.493,0.397-0.87,0.888-0.869c0.508,0.001,0.896,0.403,0.884,0.919
	c-0.011,0.512-0.418,0.887-0.934,0.863C296.962,448.637,296.601,448.244,296.613,447.747"/>
<path fill="#5e2d90" d="M285.802,440.599c0.512-0.011,0.915,0.381,0.915,0.889c-0.001,0.486-0.385,0.883-0.867,0.898
	c-0.503,0.015-0.91-0.388-0.91-0.897C284.94,440.994,285.312,440.611,285.802,440.599"/>
</svg>